# xmcd CD database file
#
# Track frame offsets:
#	152
#	26076
#	48696
#	74919
#	101868
#	122176
#	148263
#	168062
#	190251
#	212748
#	233311
#	254932
#	278458
#	301020
#
# Disc length: 4309 seconds
#
# Revision: 1
# Processed by: cddbd v1.4PL0 Copyright (c) Steve Scherf et al.
# Submitted via: CDex 1.50
#
DISCID=d410d30e
DTITLE=Diverse - Lo mejor de lo mejor
DYEAR=1900
DGENRE=Salsa
TTITLE0=Michel - amigo de que
TTITLE1=Victor Manuel - Se me rompe el alma
TTITLE2=Junior González - Tengo derecho a ser feliz
TTITLE3=Toto Rojas - Mujeres como tu
TTITLE4=Elvis Crespo - Suavemente
TTITLE5=Roberto Roena - Como te hago entender
TTITLE6=Jorge Leo - Contigo lo tengo todo
TTITLE7=Toto Nieve - Como un nino celeso
TTITLE8=Tito Rojas - Es mi mujer
TTITLE9=Elvis Crespo - Tu sonrisa
TTITLE10=Raulín Rosendo - Si no te hubieras ido
TTITLE11=Jorge Leo - Fantasia
TTITLE12=Issac Delgado - Ella es un reloj
TTITLE13=Michel - Mama
EXTD=
EXTT0=
EXTT1=
EXTT2=
EXTT3=
EXTT4=
EXTT5=
EXTT6=
EXTT7=
EXTT8=
EXTT9=
EXTT10=
EXTT11=
EXTT12=
EXTT13=
PLAYORDER=
